<svg xmlns="http://www.w3.org/2000/svg" viewBox="180 360 760 520">
      <path
        fill="#22C55E"
        d="M792.742,668.122c-36.454,0-66.954,25.424-74.776,59.485c-5.959-1.756-12.245-2.724-18.748-2.724
      c-36.351,0-65.814,29.469-65.814,65.819c0,36.323,29.464,65.803,65.814,65.803h0.114h174.465V856.5
      C902.126,856.276,925,833.245,925,804.879c0-28.506-23.091-51.604-51.604-51.604c-1.467,0-2.917,0.08-4.366,0.198
      c0.298-2.816,0.504-5.67,0.504-8.569C869.534,702.488,835.143,668.122,792.742,668.122z"
      />
      <path
        fill="#1E40AF"
        d="M699.218,703.058c1.37,0,2.767,0.046,4.154,0.109c15.866-34.282,50.211-56.87,89.37-56.87
      c50.532,0,92.304,38.196,97.959,87.221c3.232,0.767,6.32,1.933,9.397,3.146c3.295-12.818,5.26-26.175,5.26-40.021
      c0-88.278-71.578-159.834-159.859-159.834c-15.843,0-31.114,2.329-45.536,6.612c-19.069-82.78-93.146-144.532-181.696-144.532
      c-103.001,0-186.487,83.5-186.487,186.492c0,7.048,0.413,13.998,1.186,20.851c-3.501-0.286-7.037-0.481-10.601-0.481
      C253.125,605.753,197,661.877,197,731.124c0,68.917,55.598,124.827,124.385,125.362v0.02h320.149
      c-18.307-16.076-29.956-39.588-29.956-65.803C611.578,742.377,650.891,703.058,699.218,703.058z"
      />
    </svg>